<?xml version="1.0" encoding="UTF-8"?>
<svg id="Livello_2" data-name="Livello 2" xmlns="http://www.w3.org/2000/svg" viewBox="0 0 5.8 6.22">
  <defs>
    <style>
      .cls-1 {
        fill: #fff;
      }
    </style>
  </defs>
  <g id="Livello_1-2" data-name="Livello 1">
    <path class="cls-1" d="M2.23,.89h1.34c0-.1,0-.2,0-.3,0-.09,.01-.19,.06-.27C3.73,.12,3.89,0,4.12,0c.13,0,.26,0,.38,.02,.23,.05,.4,.27,.4,.49,0,.12,0,.25,0,.38h.46c.2,0,.39,.15,.43,.35,0,.04,.01,.07,.01,.11,0,1.48,0,2.95,0,4.43,0,.22-.19,.44-.44,.44-1.39,0-2.78,0-4.17,0-.26,0-.51,0-.77,0-.22,0-.42-.2-.43-.42C0,4.3,0,2.81,0,1.32c0-.22,.21-.42,.43-.42,.15,0,.3,0,.46,0,0-.02,0-.04,0-.05,0-.11,0-.22,0-.32C.9,.25,1.15,0,1.44,0c.12,0,.23,0,.35,.01,.23,.03,.44,.25,.45,.49,0,.13,0,.26,0,.39Zm3.12,4.89V2.23H.45v3.55H5.35ZM1.78,1.07c0-.17,0-.33,0-.5,0-.07-.03-.11-.1-.11-.08,0-.15,0-.23,0-.07,0-.11,.04-.11,.11,0,.33,0,.66,0,.99,0,.07,.04,.11,.11,.11,.07,0,.14,0,.21,0,.08,0,.12-.04,.12-.12,0-.16,0-.33,0-.49Zm2.24,0c0,.17,0,.34,0,.5,0,.06,.04,.11,.1,.11,.08,0,.16,0,.24,0,.06,0,.1-.05,.1-.1,0-.34,0-.67,0-1.01,0-.06-.04-.1-.1-.11-.08,0-.15,0-.23,0-.08,0-.11,.04-.11,.11,0,.16,0,.33,0,.49Z"/>
  </g>
</svg>