<?xml version="1.0" encoding="UTF-8"?>
<svg id="Livello_2" data-name="Livello 2" xmlns="http://www.w3.org/2000/svg" viewBox="0 0 29.73 28.96">
  <defs>
    <style>
      .cls-1 {
        fill: #fff;
        stroke-width: 0px;
      }
    </style>
  </defs>
  <g id="Livello_1-2" data-name="Livello 1">
    <path class="cls-1" d="M27.94,9.04c.59-2.93-1.48-5.67-4.38-5.99-1.51-3.57-6.4-4.17-8.7-.95-2.3-3.22-7.19-2.62-8.7.95-2.9.31-4.97,3.06-4.38,5.99-2.16,1.81-2.38,5.03-.57,7.12-3,4.04-.15,9.94,5.03,9.94,1.66,3.45,6.38,3.86,8.61.76,2.23,3.11,6.95,2.69,8.61-.76,5.17.01,8.04-5.9,5.03-9.94,1.82-2.09,1.59-5.31-.57-7.12M10.67,27.06c-2.62,0-4.13-3.08-2.42-5.14.33-.4.27-.99-.12-1.32-.4-.33-.99-.27-1.32.12-.79.95-1.21,2.19-1.14,3.45-3.55-.38-5.14-4.63-2.79-7.25.03.03.91-1.23,2.79-1.43-.03.61.05,1.22.24,1.82.13.4.49.65.89.65.63,0,1.09-.62.89-1.23-.54-1.65.36-3.43,2.01-3.96.49-.16.76-.69.6-1.18-.16-.49-.69-.76-1.18-.6-.22.07-.42.15-.62.25-.37-.96-.12-2.08.72-2.78.4-.33.45-.92.12-1.32-.33-.4-.92-.45-1.32-.12-1.62,1.35-2,3.61-1.06,5.37-.63.7-.78,1.22-.83,1.22-1.37,0-2.65.45-3.68,1.2-1.15-1.44-.82-3.61.8-4.62.37-.23.53-.7.39-1.11-.69-1.93.61-4.2,3.1-4.2.42,0,.8-.28.9-.7.36-1.37,1.61-2.33,3.04-2.33,1.73,0,3.14,1.41,3.14,3.14v18.93c0,1.73-1.41,3.14-3.14,3.14M27.05,14.8c-1.12-.82-2.47-1.23-3.7-1.2-.21-.44-.47-.84-.81-1.22.94-1.76.57-4.02-1.06-5.37-.4-.33-.99-.27-1.32.12-.33.4-.27.99.12,1.32.84.69,1.09,1.82.72,2.78-.2-.1-.41-.18-.62-.25-.49-.16-1.02.11-1.18.6-.16.49.11,1.02.6,1.18,1.65.54,2.55,2.32,2.01,3.96-.16.49.11,1.02.6,1.18.49.16,1.02-.1,1.18-.6.19-.6.27-1.21.24-1.82,2.2.23,3.9,2.11,3.9,4.34s-1.71,4.11-3.9,4.34c.07-1.26-.35-2.5-1.14-3.45-.33-.4-.92-.45-1.32-.12-.4.33-.45.92-.12,1.32,1.7,2.06.2,5.14-2.42,5.14-1.73,0-3.14-1.41-3.14-3.14V4.99c0-1.73,1.41-3.14,3.14-3.14,1.42,0,2.67.96,3.04,2.33.11.42.5.71.94.7,2.19-.08,3.81,2.1,3.07,4.2-.15.41.01.88.39,1.11,1.62,1.01,1.95,3.18.8,4.62"/>
  </g>
</svg>