<?xml version="1.0" encoding="UTF-8"?>
<svg id="Livello_2" data-name="Livello 2" xmlns="http://www.w3.org/2000/svg" viewBox="0 0 6.48 6.47">
  <defs>
    <style>
      .cls-1 {
        fill: #fff;
        stroke: #fff;
        stroke-miterlimit: 10;
        stroke-width: .25px;
      }
    </style>
  </defs>
  <g id="Livello_1-2" data-name="Livello 1">
    <path class="cls-1" d="M.79,3.8c-.07,0-.14-.01-.21-.02-.13-.02-.26-.08-.35-.18-.14-.15-.14-.34,0-.5,.42-.46,.83-.92,1.25-1.38,.41-.46,.82-.91,1.24-1.37,.28-.31,.79-.3,1.06,0,.45,.49,.89,.98,1.34,1.48,.38,.41,.75,.83,1.13,1.24,.05,.06,.1,.12,.11,.2,.03,.15-.04,.27-.15,.37-.12,.1-.26,.14-.41,.14-.03,0-.06,0-.09,0,0,.02,0,.03,0,.04,0,.68,0,1.36,0,2.03,0,.27-.2,.48-.47,.48-.37,0-.74,0-1.12,0-.18,0-.3-.12-.3-.3,0-.41,0-.82,0-1.23,0-.11-.05-.16-.16-.16-.27,0-.54,0-.81,0-.1,0-.16,.06-.16,.16,0,.41,0,.82,0,1.23,0,.19-.12,.31-.31,.31-.37,0-.74,0-1.11,0-.24,0-.43-.16-.47-.39,0-.03,0-.06,0-.09,0-.66,0-1.33,0-1.99,0-.02,0-.05,0-.07Zm4.63-.29s.03,0,.04,0c.1,0,.21,0,.31,0,.08,0,.17-.01,.24-.06,.07-.05,.08-.11,.02-.18-.09-.1-.18-.2-.28-.31-.71-.79-1.42-1.58-2.14-2.36-.04-.04-.08-.09-.13-.12-.15-.11-.42-.11-.59,.09-.38,.43-.77,.85-1.15,1.28-.43,.48-.86,.95-1.29,1.43-.06,.07-.05,.14,.03,.18,.05,.03,.11,.05,.17,.05,.13,0,.25,0,.38,0,.01,0,.03,0,.05,0,0,.02,0,.03,0,.04,0,.77,0,1.53,0,2.3,0,.13,.09,.21,.21,.21,.36,0,.72,0,1.08,0h.04s0-.04,0-.05c0-.4,0-.81,0-1.21,0-.25,.18-.43,.43-.44,.28,0,.56,0,.84,0,.02,0,.04,0,.06,0,.22,.03,.36,.21,.36,.44,0,.4,0,.81,0,1.21,0,.01,0,.03,0,.05,.01,0,.02,0,.03,0,.36,0,.73,0,1.09,0,.12,0,.2-.09,.2-.2,0-.76,0-1.52,0-2.28v-.06Z"/>
  </g>
</svg>