<?xml version="1.0" encoding="UTF-8"?>
<svg id="Livello_1" data-name="Livello 1" xmlns="http://www.w3.org/2000/svg" viewBox="0 0 1005.57 724.7">
  <defs>
    <style>
      .cls-1 {
        fill: #fff;
        stroke-width: 0px;
      }
    </style>
  </defs>
  <g>
    <path class="cls-1" d="M255.23,135.28c0,15.13-12.27,27.4-27.39,27.4s-27.4-12.27-27.4-27.4,12.27-27.4,27.4-27.4,27.39,12.27,27.39,27.4"/>
    <path class="cls-1" d="M718.2,31.48c0,17.39-14.09,31.48-31.48,31.48s-31.48-14.09-31.48-31.48,14.09-31.48,31.48-31.48,31.48,14.09,31.48,31.48"/>
    <path class="cls-1" d="M831.18,25.32c-4.57,2.07-27.97,24.64-31.82,27.97-17.41,15.07-25.87,25.63-49.25,41.54-69.15,47.03-118.26,4.64-171.92-55.85-.88-.99-.87-2.48.01-3.47,22.71,15.67,43.56,32.47,66.96,45.55,22.65,12.66,37.44,14.77,58.53,11.79,18.92-2.67,37.49-12,68.29-37.77,7.61-6.48,16.38-13.6,24.42-19.74,9.67-7.52,22.65-11.59,34.78-10.02"/>
    <path class="cls-1" d="M123.31,163.95c3.71.5,25.82,12.93,29.19,14.67,8.28,4.28,34.91,17.59,46.93,21.52,57.31,18.75,92.38-13.47,117.74-68.2.42-.9.09-1.96-.75-2.48-12.87,16.07-14.66,18.23-28.63,32.54-16.67,17.08-29.99,24.69-52.72,27.55-17.11,2.15-35.53-5.24-63.07-17.04-6.83-3-14.63-6.2-21.68-8.87-8.52-3.3-18.68-3.42-27.01.3"/>
    <path class="cls-1" d="M0,356.58c48.32-56.14,106.25-110.47,179.24-132.68,50.38-16.17,109.17-1,146.36,36.84,31.36,30.23,69.58,68.63,113.01,49.07,8.31-3.54,19.54-13.73,26.76-19.38,48.33-40.05,90.24-101.08,146.69-135.11,145.38-92.12,299.85,43.55,393.52,155.48l-2.84,3.06c-41.2-39.66-79.25-67.14-122.57-93.6-57.93-35.38-127.1-65.53-195.4-51.94-70.03,14.54-113.69,78.63-170.14,123.76-13.96,11.37-30.02,23.82-44.73,34.55-17.69,13.15-41.23,19.96-62.99,16.65-67.44-7.08-93.42-84.71-155.06-101.58-93.61-25.56-186.61,55.36-248.74,117.64l-3.11-2.78"/>
  </g>
  <path class="cls-1" d="M898.09,445.17c-2.28-.91-4.27-2.2-5.96-3.87-1.69-1.67-3-3.62-3.93-5.86-.93-2.24-1.39-4.67-1.39-7.29s.46-5.1,1.39-7.32c.93-2.22,2.24-4.16,3.93-5.83,1.69-1.67,3.67-2.96,5.96-3.86,2.28-.91,4.75-1.36,7.41-1.36s5.12.46,7.38,1.36c2.26.91,4.22,2.2,5.89,3.86,1.67,1.67,2.97,3.61,3.9,5.83.93,2.22,1.39,4.66,1.39,7.32s-.47,5.1-1.39,7.32-2.23,4.16-3.9,5.83-3.63,2.96-5.89,3.87c-2.26.91-4.72,1.36-7.38,1.36s-5.13-.45-7.41-1.36ZM914.75,449.03c2.83-1.12,5.29-2.69,7.38-4.72s3.72-4.41,4.88-7.16c1.16-2.75,1.74-5.74,1.74-9s-.58-6.25-1.74-9c-1.16-2.75-2.79-5.13-4.88-7.16s-4.55-3.6-7.38-4.72c-2.83-1.12-5.91-1.68-9.25-1.68s-6.48.56-9.31,1.68c-2.83,1.12-5.29,2.7-7.38,4.75-2.09,2.05-3.72,4.44-4.88,7.16-1.16,2.72-1.74,5.71-1.74,8.96s.58,6.24,1.74,8.96c1.16,2.72,2.79,5.11,4.88,7.16,2.09,2.05,4.56,3.63,7.41,4.75,2.85,1.12,5.94,1.68,9.28,1.68s6.42-.56,9.25-1.68ZM863.56,449.06c2.83-1.1,5.22-2.72,7.16-4.88l-2.98-2.98c-1.82,1.86-3.82,3.21-6.02,4.05-2.2.85-4.56,1.27-7.1,1.27-2.66,0-5.13-.45-7.41-1.36-2.28-.91-4.27-2.2-5.96-3.87-1.69-1.67-3.01-3.61-3.96-5.83s-1.43-4.66-1.43-7.32.48-5.1,1.43-7.32c.95-2.22,2.27-4.16,3.96-5.83,1.69-1.67,3.67-2.96,5.96-3.86,2.28-.91,4.75-1.36,7.41-1.36s4.9.41,7.1,1.24c2.2.82,4.2,2.17,6.02,4.02l2.98-2.98c-1.94-2.15-4.33-3.77-7.16-4.85-2.83-1.08-5.85-1.62-9.06-1.62s-6.42.56-9.25,1.68c-2.83,1.12-5.29,2.69-7.38,4.72s-3.72,4.41-4.88,7.16c-1.16,2.75-1.74,5.74-1.74,9s.58,6.25,1.74,9c1.16,2.75,2.78,5.13,4.85,7.16s4.52,3.6,7.35,4.72c2.83,1.12,5.91,1.68,9.25,1.68s6.29-.55,9.12-1.65ZM814.4,450.33v-44.35h-4.69v44.35h4.69ZM762.26,407.82l-2.09,2.22h13.87c4.43,0,7.8.97,10.11,2.91,2.3,1.94,3.45,4.69,3.45,8.24s-1.15,6.23-3.45,8.17c-2.3,1.94-5.67,2.91-10.11,2.91h-13.87l2.09,2.22v-26.67ZM792.99,450.33l-11.47-16.09h-5.07l11.4,16.09h5.13ZM762.26,450.33v-16.22l-2.09,2.15h14c3.76,0,6.99-.6,9.69-1.81,2.7-1.2,4.78-2.94,6.24-5.2,1.46-2.26,2.19-4.95,2.19-8.08s-.73-5.94-2.19-8.21c-1.46-2.26-3.54-3.99-6.24-5.19-2.7-1.2-5.93-1.81-9.69-1.81h-16.6v44.35h4.69ZM728.18,450.33v-40.29h15.59v-4.05h-35.86v4.05h15.59v40.29h4.69ZM694.79,438.48l-1.39-3.8h-25.79l-1.39,3.8h28.57ZM663.11,450.33l18.63-41.62h-1.9l18.63,41.62h4.94l-20.27-44.35h-4.62l-20.27,44.35h4.88ZM644.55,450.33v-44.35h-4.69v44.35h4.69ZM585.88,410.04h13.11c3.93,0,7.34.77,10.23,2.31,2.89,1.54,5.14,3.66,6.75,6.37,1.6,2.7,2.41,5.85,2.41,9.44s-.8,6.68-2.41,9.41c-1.61,2.72-3.85,4.86-6.75,6.4-2.89,1.54-6.3,2.31-10.23,2.31h-13.11v-36.24ZM599.25,450.33c4.73,0,8.88-.94,12.45-2.82,3.57-1.88,6.34-4.49,8.33-7.82,1.98-3.34,2.98-7.18,2.98-11.53s-.99-8.19-2.98-11.53c-1.99-3.34-4.76-5.94-8.33-7.82-3.57-1.88-7.72-2.82-12.45-2.82h-18.06v44.35h18.06ZM537.17,410.04h25.72v-4.05h-30.41v44.35h31.36v-4.05h-26.67v-36.24ZM536.66,429.8h23.44v-3.99h-23.44v3.99ZM485.98,407.82l-2.09,2.22h13.87c4.44,0,7.8.97,10.1,2.91,2.3,1.94,3.45,4.69,3.45,8.24s-1.15,6.22-3.45,8.14c-2.3,1.92-5.67,2.88-10.1,2.88h-13.87l2.09,2.28v-26.67ZM485.98,450.33v-16.22l-2.09,2.22h14c3.76,0,6.99-.61,9.69-1.84,2.7-1.22,4.78-2.97,6.24-5.23,1.46-2.26,2.19-4.95,2.19-8.08s-.73-5.94-2.19-8.21c-1.46-2.26-3.54-3.99-6.24-5.19-2.7-1.2-5.93-1.81-9.69-1.81h-16.6v44.35h4.69ZM414.32,410.04h25.72v-4.05h-30.41v44.35h31.36v-4.05h-26.67v-36.24ZM413.82,429.8h23.44v-3.99h-23.44v3.99ZM395.51,450.33v-4.05h-24.83v-40.29h-4.69v44.35h29.52ZM343.68,438.48l-1.39-3.8h-25.79l-1.39,3.8h28.57ZM312.01,450.33l18.63-41.62h-1.9l18.63,41.62h4.94l-20.27-44.35h-4.62l-20.27,44.35h4.88ZM260.88,410.04h13.11c3.93,0,7.34.77,10.23,2.31,2.89,1.54,5.14,3.66,6.75,6.37,1.6,2.7,2.41,5.85,2.41,9.44s-.8,6.68-2.41,9.41c-1.61,2.72-3.85,4.86-6.75,6.4-2.89,1.54-6.3,2.31-10.23,2.31h-13.11v-36.24ZM274.25,450.33c4.73,0,8.88-.94,12.45-2.82,3.57-1.88,6.35-4.49,8.33-7.82,1.98-3.34,2.98-7.18,2.98-11.53s-.99-8.19-2.98-11.53c-1.99-3.34-4.76-5.94-8.33-7.82-3.57-1.88-7.72-2.82-12.45-2.82h-18.06v44.35h18.06ZM212.16,410.04h25.72v-4.05h-30.41v44.35h31.36v-4.05h-26.67v-36.24ZM211.66,429.8h23.44v-3.99h-23.44v3.99ZM160.97,407.82l-2.09,2.22h13.87c4.44,0,7.8.97,10.1,2.91,2.3,1.94,3.45,4.69,3.45,8.24s-1.15,6.22-3.45,8.14c-2.3,1.92-5.67,2.88-10.1,2.88h-13.87l2.09,2.28v-26.67ZM160.97,450.33v-16.22l-2.09,2.22h14c3.76,0,6.99-.61,9.69-1.84,2.7-1.22,4.78-2.97,6.24-5.23,1.46-2.26,2.19-4.95,2.19-8.08s-.73-5.94-2.19-8.21c-1.46-2.26-3.54-3.99-6.24-5.19-2.7-1.2-5.93-1.81-9.69-1.81h-16.6v44.35h4.69ZM132.56,449.03c2.43-1.12,4.23-2.6,5.42-4.43,1.18-1.84,1.77-3.83,1.77-5.99,0-2.32-.5-4.2-1.49-5.64-.99-1.43-2.3-2.59-3.93-3.45-1.63-.87-3.4-1.57-5.32-2.12-1.92-.55-3.85-1.05-5.8-1.52-1.94-.46-3.73-.99-5.35-1.58-1.63-.59-2.94-1.42-3.93-2.47-.99-1.05-1.49-2.45-1.49-4.18,0-1.52.41-2.88,1.24-4.09.82-1.2,2.1-2.16,3.83-2.88,1.73-.72,3.93-1.08,6.59-1.08,1.98,0,4.04.3,6.18.89,2.13.59,4.15,1.52,6.05,2.79l1.58-3.74c-1.77-1.22-3.89-2.19-6.34-2.88-2.45-.7-4.92-1.04-7.41-1.04-3.76,0-6.84.56-9.25,1.68-2.41,1.12-4.19,2.6-5.35,4.43-1.16,1.84-1.74,3.85-1.74,6.05,0,2.37.5,4.28,1.49,5.73.99,1.46,2.3,2.63,3.93,3.52,1.62.89,3.41,1.59,5.35,2.12,1.94.53,3.89,1.03,5.83,1.49,1.94.46,3.72,1,5.32,1.62,1.6.61,2.9,1.45,3.9,2.5.99,1.06,1.49,2.45,1.49,4.18,0,1.44-.41,2.75-1.24,3.93-.82,1.18-2.11,2.12-3.86,2.82-1.75.7-4.02,1.04-6.81,1.04s-5.69-.52-8.33-1.55c-2.64-1.04-4.74-2.31-6.3-3.83l-1.84,3.61c1.65,1.69,3.98,3.07,7,4.15,3.02,1.08,6.18,1.62,9.47,1.62,3.8,0,6.92-.56,9.34-1.68ZM63.47,445.17c-2.28-.91-4.27-2.2-5.96-3.87-1.69-1.67-3-3.62-3.93-5.86-.93-2.24-1.39-4.67-1.39-7.29s.46-5.1,1.39-7.32c.93-2.22,2.24-4.16,3.93-5.83,1.69-1.67,3.67-2.96,5.96-3.86,2.28-.91,4.75-1.36,7.41-1.36s5.12.46,7.38,1.36c2.26.91,4.22,2.2,5.89,3.86,1.67,1.67,2.97,3.61,3.9,5.83.93,2.22,1.39,4.66,1.39,7.32s-.47,5.1-1.39,7.32c-.93,2.22-2.23,4.16-3.9,5.83s-3.63,2.96-5.89,3.87c-2.26.91-4.72,1.36-7.38,1.36s-5.13-.45-7.41-1.36ZM80.13,449.03c2.83-1.12,5.29-2.69,7.38-4.72s3.72-4.41,4.88-7.16c1.16-2.75,1.74-5.74,1.74-9s-.58-6.25-1.74-9c-1.16-2.75-2.79-5.13-4.88-7.16s-4.55-3.6-7.38-4.72c-2.83-1.12-5.91-1.68-9.25-1.68s-6.48.56-9.31,1.68c-2.83,1.12-5.29,2.7-7.38,4.75-2.09,2.05-3.72,4.44-4.88,7.16-1.16,2.72-1.74,5.71-1.74,8.96s.58,6.24,1.74,8.96c1.16,2.72,2.79,5.11,4.88,7.16,2.09,2.05,4.56,3.63,7.41,4.75,2.85,1.12,5.94,1.68,9.28,1.68s6.42-.56,9.25-1.68Z"/>
  <g>
    <path class="cls-1" d="M877.96,569.43c-14.42,0-25.01-11.19-25.01-26.57s10.59-26.57,25.01-26.57,24.86,11.11,24.86,26.57-10.44,26.57-24.86,26.57h0ZM877.96,594.76c30.38,0,52.03-21.62,52.03-51.9s-21.65-51.9-52.03-51.9-52.18,21.71-52.18,51.9,21.73,51.9,52.18,51.9h0ZM787.09,493.45v51.84l-36.38-51.84h-22.84v98.81h25.29v-53.62l37.63,53.62h21.58v-98.81h-25.29ZM662.51,569.43c-14.42,0-25.01-11.19-25.01-26.57s10.59-26.57,25.01-26.57,24.86,11.11,24.86,26.57-10.44,26.57-24.86,26.57h0ZM662.51,594.76c30.38,0,52.03-21.62,52.03-51.9s-21.65-51.9-52.03-51.9-52.18,21.71-52.18,51.9,21.73,51.9,52.18,51.9h0ZM566.42,569.92h-14.18v-17.97h14.18c5.65,0,9.35,3.7,9.35,8.94s-3.69,9.03-9.35,9.03ZM574.26,523.25c0,5.13-3.37,8.6-8.82,8.6h-13.19v-17.21h13.19c5.46,0,8.83,3.47,8.83,8.6h0ZM587.05,540.09c7.24-4.57,11.98-12.52,11.98-21.35,0-14.6-12.26-25.29-29.05-25.29h-42.79v98.81h43.66c17.49,0,30.73-12.13,30.73-28.14,0-10.78-5.6-19.62-14.53-24.04h0ZM461.82,569.43c-14.42,0-25.01-11.19-25.01-26.57s10.59-26.57,25.01-26.57,24.85,11.11,24.85,26.57-10.44,26.57-24.85,26.57h0ZM461.82,594.76c30.37,0,52.03-21.62,52.03-51.9s-21.65-51.9-52.03-51.9-52.19,21.71-52.19,51.9,21.73,51.9,52.19,51.9h0ZM405.38,493.45h-77.68v24.51h25.73v74.3h26.21v-74.3h25.73v-24.51ZM290.71,493.45v51.84l-36.38-51.84h-22.84v98.81h25.29v-53.62l37.63,53.62h21.58v-98.81h-25.29ZM182.05,554.92h-20.85l10.38-30.62,10.47,30.62ZM193.64,592.27h28.74l-38.03-98.81h-25.51l-37.21,98.81h27.97l5.25-16.05h33.58l5.22,16.05ZM82.77,594.68c22,0,37.9-11.2,37.9-32.78s-18.23-27.42-32.17-31.17c-8.92-2.34-16.06-4.2-16.06-9.81,0-4.61,4.47-6.71,9.12-6.71,5.41,0,9.88,2.93,9.88,9.18h26.17c0-20.1-13.02-32.26-35.74-32.26s-36.04,11.15-36.04,30.61c0,22.5,17.48,26.87,31.17,30.42,9.02,2.28,16.39,4.08,16.39,10.28,0,5.4-5.22,8.43-10.69,8.43-5.95,0-11.17-3.44-11.17-10.49h-26.92c0,21.54,14.98,34.32,38.17,34.32Z"/>
    <path class="cls-1" d="M903.29,626.21v50.39l-39.91-50.39h-25.06v96.06h27.75v-52.13l41.29,52.13h23.68v-96.06h-27.75ZM766.62,700.07c-15.82,0-27.44-10.88-27.44-25.83s11.62-25.83,27.44-25.83,27.27,10.8,27.27,25.83-11.45,25.83-27.27,25.83h0ZM766.62,724.7c33.32,0,57.08-21.02,57.08-50.46s-23.75-50.46-57.08-50.46-57.25,21.1-57.25,50.46,23.84,50.46,57.25,50.46h0ZM659.86,672.63h-12.12v-23.31h12.12c7.54,0,12.5,4.83,12.5,11.66s-4.97,11.66-12.5,11.66ZM663.29,626.21h-44.25v96.06h28.7v-26.53h15.55c22.09,0,38.5-14.68,38.5-34.82s-16.41-34.71-38.5-34.71ZM569.9,722.27h29.01v-96.06h-29.01v96.06ZM520.08,698.03v-71.82h-29.01v96.06h66v-24.23h-36.99ZM441.93,722.27h29.01v-96.06h-29.01v96.06ZM385.37,724.62c24.13,0,41.58-10.89,41.58-31.87s-20-26.66-35.3-30.31c-9.79-2.27-17.62-4.08-17.62-9.53,0-4.48,4.9-6.52,10-6.52,5.93,0,10.83,2.85,10.83,8.92h28.71c0-19.54-14.29-31.37-39.2-31.37s-39.54,10.84-39.54,29.75c0,21.87,19.18,26.12,34.2,29.57,9.89,2.22,17.98,3.96,17.98,9.99,0,5.25-5.73,8.2-11.72,8.2-6.53,0-12.26-3.34-12.26-10.2h-29.54c0,20.94,16.44,33.37,41.88,33.37ZM284.14,724.7c26.49,0,45.37-15.96,45.37-39.59v-58.9h-29.26v58.4c0,9.39-6.55,15.46-16.11,15.46s-16.11-6.07-16.11-15.46v-58.4h-29.26v58.9c0,23.63,18.87,39.59,45.37,39.59ZM189.93,685.96h-22.88l11.39-29.77,11.49,29.77ZM202.65,722.27h31.53l-41.72-96.06h-27.99l-40.82,96.06h30.68l5.76-15.6h36.84l5.73,15.6ZM87.24,672.63h-12.12v-23.31h12.12c7.54,0,12.5,4.83,12.5,11.66s-4.97,11.66-12.5,11.66ZM90.67,626.21h-44.25v96.06h28.7v-26.53h15.55c22.09,0,38.5-14.68,38.5-34.82s-16.41-34.71-38.5-34.71Z"/>
  </g>
</svg>