<?xml version="1.0" encoding="UTF-8"?>
<svg id="Livello_2" data-name="Livello 2" xmlns="http://www.w3.org/2000/svg" viewBox="0 0 23.84 30.16">
  <defs>
    <style>
      .cls-1 {
        fill: none;
        stroke: #fff;
        stroke-miterlimit: 10;
        stroke-width: 1.33px;
      }
    </style>
  </defs>
  <g id="Livello_1-2" data-name="Livello 1">
    <path class="cls-1" d="M11.99,7.35c-1.3-1.94-2.59-3.86-3.9-5.8.07-.03.13-.05.18-.06.97-.26,1.94-.52,2.91-.78.26-.07.49-.06.73.06,2.34,1.09,4.53,2.43,6.42,4.2,2.04,1.9,3.59,4.11,4.41,6.81.27.9.42,1.81.41,2.76-.01,4.73,0,9.46,0,14.2,0,.56-.2.75-.77.75-.84,0-1.69,0-2.53.01-.22,0-.29-.07-.32-.27-.2-1.31-.4-2.62-.61-3.93-.31-2.01-.63-4.03-.95-6.04-.11-.73-.23-1.47-.34-2.22,1.16-.36,1.85-1.11,1.73-2.36-.08-.9-.62-1.52-1.49-1.77-1-.3-1.8.07-2.42.89-1.07-.44-2.03-.29-2.74.68-.53.72-.55,1.53-.08,2.29.56.91,1.41,1.16,2.46.96.61,3.92,1.23,7.84,1.84,11.77-.09,0-.15.01-.22.01-1.43,0-2.87,0-4.3,0-.57,0-.78-.2-.8-.77-.12-2.43-.41-4.84-1.1-7.19-.5-1.7-1.17-3.33-2.26-4.75-.24-.31-.51-.59-.78-.87-.2-.2-.44-.34-.72-.44-2.56-.87-4.25-2.64-5.21-5.13-.79-2.05-1.01-4.19-.84-6.38.02-.31.19-.53.51-.61,1.35-.36,2.71-.73,4.06-1.09.11-.03.18-.02.25.09,1.48,2.22,2.97,4.43,4.48,6.69-.08.07-.18.13-.26.21-.67.65-.84,1.6-.45,2.43.37.79,1.25,1.3,2.1,1.2.91-.1,1.65-.74,1.86-1.64.04-.17.1-.24.28-.24.91-.04,1.66-.62,1.93-1.48.26-.81-.03-1.74-.7-2.28-.71-.56-1.65-.61-2.43-.14-.11.07-.22.14-.35.23Z"/>
  </g>
</svg>