<?xml version="1.0" encoding="UTF-8"?>
<svg id="Livello_2" data-name="Livello 2" xmlns="http://www.w3.org/2000/svg" viewBox="0 0 31.75 25.13">
  <defs>
    <style>
      .cls-1 {
        fill: #fff;
        stroke-width: 0px;
      }
    </style>
  </defs>
  <g id="Livello_1-2" data-name="Livello 1">
    <path class="cls-1" d="M31.75,8.54c0,.9-.15,1.79-.44,2.65-1.35,6.11-13.01,13.49-13.51,13.8-.16.1-.33.15-.51.15s-.35-.05-.51-.15c-.13-.09-3.42-2.16-6.75-5.01-.4-.35-.44-.94-.11-1.33.34-.39.94-.44,1.33-.11,2.48,2.12,4.99,3.84,6.04,4.53,3.5-2.28,11.24-8.09,12.18-12.38.25-.76.36-1.44.36-2.14,0-2.43-1.32-4.68-3.46-5.85-2.73-1.51-6.37-.82-8.36,1.59-.36.43-1.09.43-1.46,0-2-2.4-5.64-3.1-8.36-1.59-2.14,1.18-3.47,3.42-3.47,5.85,0,.69.12,1.39.34,2.06.14.62.41,1.23.75,1.87h5.53l1.9-4.36c.16-.37.55-.61.95-.57.41.03.74.33.84.73l1.4,5.91,1.81-2.97c.17-.28.48-.45.81-.45h3.43c.52,0,.95.42.95.95s-.43.95-.95.95h-2.9l-2.72,4.47c-.17.28-.48.46-.81.46-.05,0-.1,0-.15-.01-.38-.06-.68-.34-.77-.72l-1.28-5.38-1.01,2.32c-.15.35-.49.57-.87.57H.94c-.52,0-.94-.43-.94-.95s.43-.95.94-.95h2.78c-.2-.47-.36-.93-.45-1.37-.26-.77-.41-1.66-.41-2.56,0-3.12,1.7-6,4.44-7.51,3.18-1.76,7.38-1.2,10.01,1.26,2.62-2.47,6.82-3.02,10-1.26,2.74,1.51,4.44,4.39,4.44,7.51"/>
  </g>
</svg>